<?xml version="1.0" encoding="iso-8859-1"?>
<svg height="800px" width="800px" version="1.1" id="Layer_1" xmlns="http://www.w3.org/2000/svg"
     viewBox="-100 0 712 512" xml:space="preserve">
<g>
    <circle fill="#F5DB85" cx="255" cy="265" r="320"/>

    <path style="fill:#0D0F0F;" d="M483.127,196.597h-21.291c-8.824,0-15.976,7.154-15.976,15.976s7.152,15.976,15.976,15.976h5.315
		v162.474h-43.187V131.29c9.683-12.048,15.495-27.332,15.495-43.955c0-38.761-31.534-70.295-70.295-70.295
		c-9.79,0-19.299,1.994-28.092,5.841C326.439,8.359,306.544,0,285.556,0c-19.938,0-38.782,7.422-53.221,20.686
		c-7.907-2.419-16.118-3.638-24.528-3.638c-14.548,0-28.591,3.686-41.11,10.725c-8.633-3.173-17.698-4.777-27.055-4.777
		c-8.824,0-15.976,7.154-15.976,15.976s7.152,15.976,15.976,15.976c7.454,0,14.593,1.709,21.216,5.084
		c5.323,2.711,11.715,2.225,16.567-1.259c8.903-6.392,19.409-9.771,30.383-9.771c7.694,0,15.113,1.642,22.05,4.885
		c6.659,3.111,14.586,1.278,19.202-4.446c8.956-11.116,22.259-17.489,36.496-17.489c15.444,0,29.896,7.621,38.662,20.385
		c2.436,3.548,6.2,5.961,10.442,6.697c4.237,0.729,8.597-0.275,12.086-2.794c6.561-4.742,14.313-7.248,22.418-7.248
		c21.143,0,38.343,17.201,38.343,38.343s-17.2,38.343-38.343,38.343c-8.824,0-15.976,7.154-15.976,15.976
		c0,8.822,7.152,15.976,15.976,15.976c7.998,0,15.679-1.361,22.847-3.833v326.249h-31.42V280.161
		c0-26.8-21.803-48.604-48.602-48.604c-12.546,0-23.996,4.778-32.626,12.612c-8.632-7.831-20.082-12.612-32.628-12.612
		c-12.546,0-23.996,4.778-32.626,12.612c-8.632-7.831-20.082-12.612-32.626-12.612c-26.8,0-48.604,21.803-48.604,48.604v199.885
		h-31.422V268.472c0-8.822-7.152-15.976-15.976-15.976s-15.976,7.154-15.976,15.976v227.552c0,8.822,7.152,15.976,15.976,15.976
		h63.372h65.254h65.254h65.254h63.372c8.824,0,15.976-7.154,15.976-15.976v-73.049h59.163c8.824,0,15.976-7.154,15.976-15.976
		V212.573C499.103,203.749,491.951,196.597,483.127,196.597z M164.828,280.161c0-9.181,7.47-16.652,16.652-16.652
		c9.181,0,16.65,7.47,16.65,16.652v199.885h-33.302L164.828,280.161L164.828,280.161z M230.084,280.161
		c0-9.181,7.469-16.652,16.65-16.652s16.652,7.47,16.652,16.652v199.885h-33.302V280.161z M295.338,480.048V280.161
		c0-9.181,7.469-16.652,16.65-16.652c9.181,0,16.65,7.47,16.65,16.652v199.885h-33.301V480.048z"/>
    <path style="fill:#0D0F0F;" d="M175.594,178.935c10.138,4.211,21.039,6.394,32.213,6.394c24.656,0,47.661-10.658,63.537-28.99
		c4.676,0.858,9.427,1.291,14.214,1.291c8.824,0,15.976-7.154,15.976-15.976c0-8.822-7.152-15.976-15.976-15.976
		c-5.223,0-10.372-0.864-15.307-2.571c-6.945-2.396-14.629,0.244-18.627,6.41c-9.685,14.942-26.065,23.862-43.818,23.862
		c-10.635,0-20.871-3.187-29.604-9.217c-4.913-3.393-11.309-3.762-16.583-0.959c-1.203,0.641-2.411,1.222-3.588,1.724
		c-5.034,2.154-8.614,6.736-9.488,12.142c-4.098,25.37-25.76,43.784-51.505,43.784c-28.776,0-52.189-23.411-52.189-52.187
		c0-23.74,16.018-44.505,38.953-50.494c8.538-2.23,13.65-10.958,11.42-19.496c-2.23-8.536-10.963-13.645-19.494-11.42
		c-36.993,9.661-62.829,43.139-62.829,81.409c0,46.395,37.745,84.14,84.141,84.14C132.629,232.805,163.38,210.966,175.594,178.935z"
    />
</g>
</svg>